<?xml version="1.0" encoding="UTF-8"?>
<svg id="Layer_2" data-name="Layer 2" xmlns="http://www.w3.org/2000/svg" viewBox="0 0 199.63 232.57">
  <defs>
    <style>
      .cls-1 {
        fill: #cbcdd4;
      }

      .cls-2 {
        fill: #1d7abc;
      }

      .cls-3 {
        fill: none;
      }

      .cls-4 {
        fill: #fefefe;
      }
    </style>
  </defs>
  <g id="Layer_1-2" data-name="Layer 1">
    <g>
      <path class="cls-4" d="m199.54,116.29c0,37.61-.04,75.22.08,112.83,0,2.88-.58,3.46-3.45,3.46-64.24-.1-128.48-.1-192.72,0-2.87,0-3.46-.58-3.45-3.45C.1,153.9.1,78.68,0,3.45,0,.58.58,0,3.45,0c64.24.1,128.48.1,192.72,0,2.87,0,3.46.58,3.45,3.46-.12,37.61-.08,75.22-.08,112.83Zm-3.91,50.56l-.02.03c1.45-1.04.99-2.6.99-3.98.02-33.33.02-66.67,0-100,0-1.36.52-2.95-1.09-3.9-1.31-1.77-3.52-2.03-5.26-3.07-11.17-6.72-22.22-13.69-33.69-19.85-10.21-5.48-20-11.64-30.19-17.14-7.62-4.12-15.12-8.47-22.59-12.86-1.9-1.12-3.41-1.01-5.21.05-5.15,3.02-10.38,5.89-15.55,8.88-24.32,14.04-48.64,28.09-72.92,42.2-1.91,1.11-3.26,2.58-3.15,5.37.27,6.4.01,12.83-.03,19.25,0,15.92,0,31.83,0,47.75.03,11.24.16,22.48.02,33.71-.04,3.34,1.24,5.17,4.11,6.71,7.79,4.21,15.41,8.71,23.1,13.1,13.66,7.79,27.33,15.54,40.97,23.38,7.66,4.4,15.22,8.97,22.89,13.36,2.44,1.4,4.62,1.3,7.43-.35,21.54-12.64,43.28-24.95,64.92-37.41,8.16-4.7,16.24-9.53,24.35-14.31.23.13.46.26.69.39.08-.43.16-.86.24-1.29Z"/>
      <path class="cls-2" d="m194.7,167.74c-8.11,4.77-16.19,9.61-24.35,14.31-21.65,12.46-43.38,24.77-64.92,37.41-2.81,1.65-4.98,1.75-7.43.35-7.67-4.39-15.23-8.96-22.89-13.36-13.63-7.83-27.31-15.59-40.97-23.38-7.69-4.39-15.32-8.89-23.1-13.1-2.86-1.55-4.15-3.37-4.11-6.71.15-11.24.01-22.48-.02-33.72,1.11-1.6.64-3.42.64-5.14.04-12.17.05-24.34,0-36.51,0-2.03.57-4.17-.64-6.1.04-6.42.3-12.84.03-19.25-.12-2.78,1.24-4.25,3.15-5.37,24.28-14.11,48.6-28.15,72.92-42.2,5.17-2.98,10.4-5.86,15.55-8.88,1.81-1.06,3.31-1.17,5.21-.05,7.47,4.39,14.97,8.74,22.59,12.86,10.18,5.5,19.98,11.66,30.19,17.14,11.48,6.16,22.52,13.14,33.69,19.85,1.74,1.05,3.95,1.3,5.26,3.07.03,35.96.07,71.92.1,107.88,0,0,.02-.03.02-.03-.31.3-.62.6-.93.89ZM18.47,63.91c-1.85.83-1.04,2.51-1.04,3.78-.06,30.32-.05,60.65-.01,90.97,0,1.13-.72,2.64,1.01,3.31,1.89,1.43,3.72,2.88,5.83,4.05,12.89,7.15,25.74,14.38,38.49,21.77,11.54,6.69,22.89,13.71,34.44,20.39,2.23,1.29,4.92,2.9,7.65.76,5.47-4.3,11.97-6.84,17.8-10.43,16.68-10.28,33.99-19.47,50.69-29.68,3.99-2.44,8.65-3.87,11.82-7.6,1.55-1.24.87-2.98.87-4.49.05-29.38.05-58.77.03-88.15,0-1.36.57-2.93-.9-3.99-7.66-4.63-15.5-8.99-23.16-13.58-17.61-10.55-35.95-19.87-53.13-31.17-4.31-2.84-8.75-3.98-13.78-.55-5.96,4.07-12.42,7.41-18.68,11.04-19.3,11.2-38.62,22.39-57.92,33.58Z"/>
      <path class="cls-1" d="m195.61,166.88c-.03-35.96-.07-71.92-.1-107.88,1.61.95,1.09,2.54,1.09,3.9.03,33.33.02,66.67,0,100,0,1.38.46,2.94-.99,3.98Z"/>
      <path class="cls-1" d="m6.91,81.8c1.2,1.92.63,4.06.64,6.1.06,12.17.05,24.34,0,36.51,0,1.72.46,3.54-.64,5.14,0-15.91,0-31.83,0-47.75Z"/>
      <path class="cls-1" d="m194.7,167.74c.31-.3.62-.6.93-.89-.08.43-.16.86-.24,1.29-.23-.13-.46-.26-.69-.39Z"/>
      <path class="cls-4" d="m185.15,161.22c-3.17,3.73-7.83,5.15-11.82,7.6-16.71,10.22-34.01,19.41-50.69,29.68-5.84,3.6-12.33,6.14-17.8,10.43-2.73,2.14-5.42.53-7.65-.76-11.55-6.68-22.9-13.7-34.44-20.39-12.75-7.39-25.6-14.62-38.49-21.77-2.11-1.17-3.94-2.62-5.83-4.05.02-32.68.03-65.37.05-98.06,19.31-11.19,38.62-22.38,57.92-33.58,6.26-3.63,12.71-6.97,18.68-11.04,5.03-3.43,9.47-2.28,13.78.55,17.18,11.3,35.51,20.62,53.13,31.17,7.67,4.59,15.5,8.95,23.16,13.58,0,32.21,0,64.42,0,96.63ZM30.76,125.46c-1.73,2.91-.18,5.42.94,8.01,3.48,8.07,10.4,13.51,15.43,20.38,4.95,6.75,13.91,11.41,11.82,22.07-.37,1.88,1.37,3.09,3.25,3.51,2.13.48,4.66-.32,4.82-2.08.47-5.09,2.47-10.76-1.03-15.23-6.84-8.73-14.27-16.99-21.45-25.46-2.59-3.05-4.87-6.35-4.9-10.51-.1-12.53-.06-25.06-.03-37.59,0-1.63-.6-3.65,2.35-3.65,2.84,0,2.48,1.87,2.49,3.6.02,8.51.06,17.03-.02,25.54-.03,3.14.81,6.02,2.49,8.52,4.41,6.56,9.01,12.99,13.58,19.44,2.05,2.9,4.92,4.06,7.79,1.75,2.55-2.05,1.41-4.62-.32-7.03-4.33-6.01-8.42-12.21-12.76-18.21-1.29-1.78-1.98-3.89-.46-5.1,1.81-1.45,4.16-.09,5.41,1.55,5.11,6.65,11.77,11.78,17.22,18.06,4.4,5.07,10.05,9.59,9.52,17.41-.03,3.35-.23,6.72-.04,10.06.3,5.36-1,10.79.79,16.07,3.58,4.19,6.55,3.89,8.99-.94,1.35-8.69,1.34-17.39,0-26.08-.08-5.25-1.93-10.01-5.12-13.96-7.55-9.37-16.18-17.78-24.42-26.55-2.87-3.05-5.96-5.15-10.28-4.79-2.08.17-2.81-.66-2.76-2.74.12-4.16.18-8.33,0-12.49-.27-6.06-2.29-11.17-8.68-13.18-4-1.26-7.92-.84-10.99,2.26-2.33,2.35-5.47,4.6-3.63,8.78-1.29,1.35-.77,3.05-.78,4.6-.04,9.8-.04,19.6,0,29.4,0,1.55-.51,3.24.78,4.6Zm142-40.56c-.28-.38-.66-.73-.83-1.16-2.42-6.21-7.87-9.75-13.6-8.34-4.7,1.16-9.27,4.69-8.92,12.31.19,4.01,0,8.03.05,12.05.02,2.04.07,3.43-2.87,3.66-4.31.34-8.08,2.39-11.16,5.66-7.24,7.69-14.72,15.16-21.85,22.95-4.46,4.87-7.05,10.77-7.48,17.48-.04,3.67-.27,7.36-.08,11.02.27,5.36-1,10.8.79,16.08.77,2.8,3.03,3.2,5.25,2.7,2.32-.53,3.67-2.33,3.68-4.87.01-5.62.48-11.28-.08-16.84-1.08-10.81,3.38-18.98,10.87-26.13,5.68-5.42,11.34-10.9,16.58-16.74,1.65-1.84,3.22-2.38,4.75-1.4,2.02,1.3.96,3.16-.22,4.82-4.48,6.3-8.82,12.71-13.36,18.98-2.06,2.85-1.75,5.5.71,7.52,2.69,2.21,4.71-.06,6.34-1.97,2.14-2.51,4.19-5.13,6-7.89,4.01-6.11,9.73-11.24,11-18.94,1.31-1.33.78-3.02.79-4.56.04-8.46.01-16.93,0-25.39,1.6-1.11,3.2-2.28,3.87.85,0,13.25,0,26.5,0,39.76.12,2.32-.54,4.39-2.03,6.18-4.97,5.96-9.94,11.93-14.93,17.88-5.74,6.83-13.43,12.66-11.09,23.39.59,2.72.67,5.57,4.46,5.51,3.67-.06,4.4-2.39,4.29-5.51-.09-2.83-.45-5.73,1.69-8.18,3.95-4.53,7.91-9.06,11.68-13.74,6.14-7.62,14.24-14.01,15.73-24.61.88-.89.79-2.02.79-3.13,0-12.09,0-24.17,0-36.26,0-1.11.07-2.25-.82-3.12Zm-99.52,4.14c0,1.12.15,2.27-.03,3.37-.89,5.57,1.47,8.65,6.63,10.98,15.35,6.93,30.24,6.49,45.11-1.23,3.67-1.9,5.44-4.52,5.26-8.71-.19-4.49-.06-8.99,0-13.48.02-1.67.91-2.58,2.7-2.69,2.35-.14,2.05,1.46,2.06,2.87.02,2.41.23,4.84-.05,7.22-.43,3.61,1.06,6.73,4.32,6.71,3.34-.02,5.22-3.2,5.22-6.86,0-3.85,0-7.71.01-11.56,0-1.44.08-2.8,1.34-3.92,4.25-3.77,3.67-6.8-1.78-8.8-10.72-3.92-21.4-7.97-31.81-12.64-6.83-3.06-13.5-4.57-20.45-.21-2.22,1.39-4.92,2.04-7.41,3-8.68,3.31-17.39,6.54-26.03,9.95-2.17.86-4.33,1.92-4.33,5.02,0,3.11,2.21,4,4.33,5.04,1.69.83,3.48,1.48,5.25,2.14q9.71,3.61,9.67,13.8Z"/>
      <path class="cls-1" d="m18.47,63.91c-.02,32.69-.03,65.37-.05,98.06-1.73-.67-1.01-2.18-1.01-3.31-.04-30.32-.04-60.65.01-90.97,0-1.27-.81-2.95,1.04-3.78Z"/>
      <path class="cls-1" d="m185.15,161.22c0-32.21,0-64.42,0-96.63,1.48,1.06.9,2.63.9,3.99.02,29.38.02,58.77-.03,88.15,0,1.5.69,3.24-.87,4.49Z"/>
      <path class="cls-2" d="m73.23,89.04q.04-10.2-9.67-13.8c-1.77-.66-3.56-1.3-5.25-2.14-2.11-1.04-4.33-1.94-4.33-5.04,0-3.1,2.16-4.16,4.33-5.02,8.64-3.41,17.35-6.64,26.03-9.95,2.49-.95,5.19-1.6,7.41-3,6.95-4.36,13.62-2.85,20.45.21,10.42,4.67,21.09,8.72,31.81,12.64,5.45,1.99,6.03,5.03,1.78,8.8-1.26,1.11-1.33,2.47-1.34,3.92-.02,3.85-.02,7.71-.01,11.56,0,3.66-1.88,6.84-5.22,6.86-3.26.02-4.75-3.1-4.32-6.71.29-2.37.08-4.81.05-7.22-.01-1.41.29-3.01-2.06-2.87-1.8.11-2.68,1.01-2.7,2.69-.07,4.49-.19,9,0,13.48.17,4.19-1.6,6.81-5.26,8.71-14.87,7.72-29.76,8.17-45.11,1.23-5.16-2.33-7.52-5.41-6.63-10.98.17-1.1.03-2.24.03-3.37Zm-1.98-21.04c8.94,3.44,16.58,6.23,24.09,9.32,3.31,1.36,6.29,2.43,9.94.93,7.56-3.12,15.26-5.9,22.91-8.81.77-.29,1.61-.69,1.45-1.51-.14-.75-1.03-1.03-1.83-1.32-6.95-2.54-13.91-5.06-20.78-7.82-2.68-1.07-5.25-2.64-8.17-1.54-8.76,3.31-17.45,6.78-27.61,10.74Zm11.28,14.23c-.98,2.42-.29,4.68-.56,6.86-.46,3.72,1.08,5.49,4.65,7.02,9.65,4.13,19.07,4.07,28.74.44,4.82-1.81,7.54-6.65,4.9-11.97-1.91-3.85-5.28.05-7.98.64-1.21.26-2.41.75-3.5,1.35-5.1,2.76-10.01,3-15.27.03-3.37-1.9-7.25-2.91-10.99-4.35Z"/>
      <path class="cls-2" d="m172.78,127.41c-1.49,10.6-9.59,16.99-15.73,24.61-3.77,4.68-7.72,9.21-11.68,13.74-2.14,2.45-1.78,5.35-1.69,8.18.1,3.12-.63,5.46-4.29,5.51-3.79.06-3.87-2.79-4.46-5.51-2.34-10.72,5.36-16.56,11.09-23.39,5-5.94,9.96-11.92,14.93-17.88,1.49-1.79,2.15-3.86,2.03-6.18.26-.39.74-.77.75-1.16.04-12.49.05-24.98.01-37.48,0-.38-.5-.75-.76-1.13-.67-3.13-2.28-1.96-3.87-.85-1.03.81-.92,1.97-.91,3.08.03,8.96.08,17.91.12,26.87-1.27,7.7-6.99,12.83-11,18.94-1.81,2.76-3.86,5.38-6,7.89-1.63,1.91-3.66,4.18-6.34,1.97-2.46-2.02-2.77-4.67-.71-7.52,4.53-6.27,8.87-12.68,13.36-18.98,1.18-1.65,2.24-3.52.22-4.82-1.53-.98-3.1-.44-4.75,1.4-5.24,5.84-10.89,11.32-16.58,16.74-7.49,7.15-11.94,15.32-10.87,26.13.55,5.56.09,11.22.08,16.84,0,2.55-1.36,4.35-3.68,4.87-2.22.5-4.48.1-5.25-2.7,0-3.35.17-6.71,0-10.05-.31-5.68.93-11.42-.7-17.05.43-6.71,3.02-12.6,7.48-17.48,7.13-7.79,14.61-15.26,21.85-22.95,3.08-3.27,6.86-5.32,11.16-5.66,2.94-.23,2.9-1.61,2.87-3.66-.05-4.02.14-8.04-.05-12.05-.35-7.61,4.21-11.14,8.92-12.31,5.73-1.42,11.18,2.13,13.6,8.34.17.43.55.77.83,1.16,0,14.17.02,28.34.03,42.51Z"/>
      <path class="cls-2" d="m30.75,86.86c-1.84-4.18,1.29-6.42,3.63-8.78,3.07-3.1,6.98-3.52,10.99-2.26,6.39,2.01,8.42,7.12,8.68,13.18.18,4.16.12,8.33,0,12.49-.06,2.08.68,2.92,2.76,2.74,4.32-.36,7.42,1.74,10.28,4.79,8.23,8.77,16.86,17.18,24.42,26.55,3.18,3.95,5.04,8.71,5.12,13.96,0,8.69,0,17.39,0,26.08-2.44,4.82-5.41,5.13-8.99.94.04-4.65.27-9.3.07-13.94-.18-4.06,1.04-8.24-.82-12.19.54-7.82-5.12-12.34-9.52-17.41-5.45-6.28-12.11-11.42-17.22-18.06-1.26-1.63-3.6-3-5.41-1.55-1.52,1.21-.83,3.32.46,5.1,4.34,6.01,8.43,12.2,12.76,18.21,1.73,2.41,2.87,4.98.32,7.03-2.87,2.31-5.74,1.15-7.79-1.75-4.57-6.45-9.17-12.88-13.58-19.44-1.68-2.5-2.52-5.38-2.49-8.52.08-8.51.04-17.03.02-25.54,0-1.72.35-3.6-2.49-3.6-2.95,0-2.35,2.02-2.35,3.65-.03,12.53-.07,25.06.03,37.59.03,4.16,2.31,7.45,4.9,10.51,7.18,8.46,14.61,16.73,21.45,25.46,3.5,4.47,1.51,10.14,1.03,15.23-.16,1.76-2.69,2.57-4.82,2.08-1.88-.43-3.62-1.63-3.25-3.51,2.09-10.66-6.88-15.32-11.82-22.07-5.03-6.87-11.96-12.31-15.43-20.38-1.11-2.59-2.67-5.1-.94-8.01,0-12.86,0-25.73,0-38.59Z"/>
      <path class="cls-1" d="m172.78,127.41c0-14.17-.02-28.34-.03-42.51.9.88.82,2.01.82,3.12,0,12.09,0,24.17,0,36.26,0,1.11.09,2.25-.79,3.13Z"/>
      <path class="cls-1" d="m162.98,86.74c.27.38.76.75.76,1.13.04,12.49.03,24.98-.01,37.48,0,.39-.49.77-.75,1.16,0-13.25,0-26.5,0-39.76Z"/>
      <path class="cls-1" d="m30.75,86.86c0,12.86,0,25.73,0,38.59-1.29-1.35-.78-3.05-.78-4.6-.04-9.8-.04-19.6,0-29.4,0-1.55-.51-3.24.78-4.6Z"/>
      <path class="cls-1" d="m158.31,115.84c-.04-8.96-.09-17.91-.12-26.87,0-1.11-.12-2.27.91-3.08,0,8.46.04,16.93,0,25.39,0,1.54.52,3.22-.79,4.56Z"/>
      <path class="cls-1" d="m106.09,149.5c1.64,5.62.4,11.37.7,17.05.18,3.34.02,6.7,0,10.05-1.79-5.28-.52-10.72-.79-16.08-.19-3.66.04-7.34.08-11.02Z"/>
      <path class="cls-1" d="m96.63,175.62c0-8.69,0-17.39,0-26.08,1.34,8.69,1.35,17.39,0,26.08Z"/>
      <path class="cls-1" d="m86.89,150.42c1.86,3.95.64,8.13.82,12.19.2,4.64-.03,9.29-.07,13.94-1.79-5.28-.5-10.71-.79-16.07-.19-3.34.02-6.71.04-10.06Z"/>
      <path class="cls-4" d="m71.25,68c10.15-3.97,18.85-7.43,27.61-10.74,2.92-1.1,5.49.47,8.17,1.54,6.87,2.75,13.83,5.28,20.78,7.82.8.29,1.69.57,1.83,1.32.15.82-.69,1.22-1.45,1.51-7.65,2.9-15.35,5.69-22.91,8.81-3.64,1.5-6.63.43-9.94-.93-7.51-3.1-15.15-5.89-24.09-9.32Z"/>
      <path class="cls-4" d="m82.53,82.23c3.73,1.44,7.61,2.44,10.99,4.35,5.26,2.97,10.17,2.74,15.27-.03,1.09-.59,2.29-1.08,3.5-1.35,2.69-.59,6.07-4.48,7.98-.64,2.64,5.32-.08,10.16-4.9,11.97-9.68,3.64-19.09,3.69-28.74-.44-3.57-1.53-5.11-3.3-4.65-7.02.27-2.18-.42-4.43.56-6.86Z"/>
    </g>
    <rect id="_Slice_" data-name="&amp;lt;Slice&amp;gt;" class="cls-3" x="5.32" y="4.58" width="190" height="219"/>
  </g>
</svg>